<?xml version="1.0" encoding="utf-8"?>
<!-- Generator: Adobe Illustrator 22.0.1, SVG Export Plug-In . SVG Version: 6.00 Build 0)  -->
<svg version="1.1" id="Livello_1" xmlns="http://www.w3.org/2000/svg" xmlns:xlink="http://www.w3.org/1999/xlink" x="0px" y="0px"
	 viewBox="0 0 1399.8 276" style="enable-background:new 0 0 1399.8 276;" xml:space="preserve">
<style type="text/css">
	.st0{fill:#FFFFFF;}
</style>
<g id="Firma_1_">
	<path class="st0" d="M161.1,256.5c0.2-5.9,1.3-11.2,3-16.3c3.2-9.7,6.4-19.5,9.9-29.1c5.2-14,10.7-27.9,16-41.8
		c0.2-0.6,0.5-1.3,0.8-1.9c0.6-1.8,0.5-2.3-1.3-2.7c-4.2-1-8.3-2.2-12.5-2.8c-5.7-0.8-11.5-1.2-17.3-1.9c-2.4-0.3-4.1,0.5-5.8,2.3
		c-8.8,9.5-17.7,19.1-26.7,28.4c-14.6,15.1-29.8,29.6-46,43.1c-7.8,6.4-15.8,12.6-24.4,18c-5,3.2-10.2,6.1-15.8,8.2
		c-4.9,1.9-10,3.1-15.4,2.9c-12.4-0.4-21.4-8.4-23.2-20.7c-0.9-5.9-0.2-11.6,1.5-17.2c2-6.7,5.1-12.9,9.2-18.5
		c18.1-25.1,41.8-41.9,72.5-48.2c16.9-3.5,33.9-4.7,51.1-4.5c4.7,0.1,9.4,0.1,14.1,0.4c2.5,0.2,4.1-0.6,5.7-2.5
		c10.2-12,20.7-23.8,30.8-35.9C207,92,225.3,67.2,241.6,41c5.5-8.9,10.6-18.1,15.9-27.2c1.1-1.9,2.1-3.9,3.3-5.8
		c0.6-0.9,1.3-1.8,2.1-2.5c1.4-1.2,3-1.4,4.6-0.6c1.5,0.7,2.3,2.1,2.3,3.7c-0.1,1.5-0.4,3-0.9,4.4c-1.9,5.2-3.9,10.4-6,15.5
		c-10.4,24.9-21.8,49.3-33.3,73.7c-8.7,18.5-17.1,37.2-25.7,55.8c-0.3,0.8-0.7,1.5-1,2.3c-0.5,1.3-1.5,2.7-1.2,3.8s1.8,1.9,2.8,2.9
		c0.8,0.9,1.7,1.8,2.3,2.9c0.7,1.4,0.2,2.8-1,3.6c-0.4,0.3-1.1,0.4-1.5,0.3c-0.2-0.1-0.3-0.8-0.3-1.3c-0.2-1.5-2.6-3.7-3.9-3.4
		c-0.3,0.1-0.7,0.4-0.9,0.7c-0.6,1.1-1,2.3-1.5,3.4c-8.1,19.6-15.2,39.5-22.2,59.4c-2.1,6-4.3,12-6.8,17.8c-1.5,3.4-3.6,6.5-5.5,9.7
		c-0.2,0.3-0.7,0.5-1,0.5c-0.3-0.1-0.6-0.5-0.7-0.9C161.2,258.6,161.2,257.3,161.1,256.5z M148.4,160.2c-0.4-0.3-0.6-0.6-0.9-0.6
		c-1.1-0.1-2.2-0.2-3.3-0.2c-10.5-0.3-21-0.1-31.5,0.7c-11.9,1-23.6,2.6-35.2,5.7c-25.1,6.8-45.1,21-60.8,41.6
		c-4.7,6.2-8.3,13-10.3,20.6C5,233.5,4.7,238.9,6,244.4c1.8,7.3,6.2,12.2,13.5,14.4c4.4,1.4,8.7,1.2,13.1,0.2
		c6.1-1.4,11.7-4.2,17-7.5c8-4.8,15.3-10.4,22.5-16.3c27.2-22.4,51.5-47.7,75.3-73.6C147.8,161.3,148.1,160.7,148.4,160.2z
		 M243.3,52.7c-0.2-0.1-0.5-0.2-0.7-0.4c-0.8,1.1-1.7,2.2-2.4,3.3c-14.2,20.6-29.3,40.6-45.4,59.8c-10,12-20.4,23.7-30.5,35.6
		c-0.9,1.1-2.3,1.9-2.4,3.8c1,0.1,1.8,0.2,2.6,0.3c8.9,0.9,17.9,2.1,26.4,5c2.6,0.9,2.9,0.7,3.9-1.9c0.1-0.3,0.2-0.5,0.3-0.8
		c7.1-15.6,14.1-31.2,21.3-46.8c8.2-17.8,16.6-35.6,25-53.3C242.1,55.8,242.6,54.2,243.3,52.7z"/>
	<path class="st0" d="M989.5,17.4c-1.9-3.2-4.5-5.6-7.6-7.1c-2.5-1.2-4.8-2.1-7-2.6c-6.3-1.5-13.2-1.6-21.6-0.4
		c-9.4,1.3-18.9,4.4-29,9.4c-22.3,11.1-43.2,26.2-62,44.8c-6.2,6.1-11.3,12.2-15.8,18.6c-2.6,3.7-5.5,8.3-7.2,13.5
		c-0.9,2.7-1.4,5.3-1.6,7.7c-0.5,5.1,1.5,9.1,5.6,11.4c2.5,1.4,5.1,2.3,7.4,2.7c4.9,0.7,9.2,1.1,13,1c8.2-0.2,16.5-0.6,24.6-1
		c3.2-0.1,6.4-0.3,9.6-0.4c11.2-0.5,24.4-0.7,37.3,1.4c11.7,1.9,20.3,4.7,27.9,9c4.3,2.5,7.6,5.3,10.2,8.7
		c3.8,4.9,5.1,10.3,4.1,16.7c-0.8,4.7-2.6,9.5-5.6,15c-3.1,5.6-6.9,10.9-11.2,15.6c-22.7,24.9-49.2,43.9-78.7,56.5
		c-9.8,4.2-20,6.8-30.4,7.9c-7.1,0.7-13.7,0.3-20.1-1.3c-3.9-1-7.4-2.7-10.6-5.2c-5.1-4-7.8-9.4-8.1-16.2c-0.2-4.3,0.4-8.7,1.8-13.4
		c2.3-7.8,5.7-15.3,10.2-22.3l1.4-2.2c7.5-11.9,7.5-11.9,7.2-12.4l-0.3-0.5l-0.4,0.4c-0.4,0.5-0.9,1-1.5,1.7
		c-1.1,1.1-2.3,2.4-2.9,3.3c-3.7,5-6.7,9.2-9.7,13.6c-3.4,4.9-6.3,10.6-9.4,18.4c-2.3,5.7-3.4,11.8-3.5,18.1
		c0,9.8,3.3,17.8,9.9,23.6c3.7,3.3,7.9,5.6,12.5,6.9c5.3,1.5,10.7,2.2,16.1,2.2c0.7,0,1.5,0,2.2,0c14.2-0.5,28.3-4.2,43.2-11.1
		c26.8-12.4,51.4-30.4,73.3-53.5c6.6-6.9,11.8-14,16-21.5c2.9-5.2,4.9-9.9,6.1-14.7c3.2-12.3,0.7-22.9-7.3-31.7
		c-2.3-2.5-5.2-4.9-8.6-7.1c-2.9-1.9-6.3-3.6-10.1-5.1c-10.7-4.3-22.5-6.5-37.3-7c-11.2-0.4-22.6,0.3-33.6,1
		c-3.5,0.2-6.9,0.4-10.4,0.6c-7.1,0.4-14.7,0.5-22.3,0.3c-2.6-0.1-5.5-0.7-8.6-2c-4-1.6-5.4-4.7-4.4-9.7c0.7-3.4,1.9-6.6,3.7-9.4
		c2.5-4,5.2-8.2,8.2-11.9c8.7-11.1,19.2-21.3,33.2-32.3c16.1-12.7,30.3-21.5,44.8-27.8c13.7-5.9,26-8.2,37.6-7
		c2.7,0.3,5.6,0.9,9.1,2.1c2.9,0.9,5.5,2.9,7.8,5.9c1.8,2.4,2.4,4.9,1.7,7.6c-0.1,0.5-0.2,1-0.3,1.7c0,0.4-0.1,0.8-0.2,1.3l-0.3,2.1
		l1.1-1.7C991.8,24.6,992,21.4,989.5,17.4z"/>
	<path class="st0" d="M1054.4,201.9c-5.5,0.3-10.3,0.6-15.1,0.8c-7.9,0.3-15.8-0.2-23.4-2.3c-3.8-1.1-7-1.1-10.5,1.3
		c-4.3,2.8-9.1,4.7-14.3,5.3c-1.7,0.2-3.6,0.2-5.3-0.2c-3.6-0.8-5.5-3.8-5-7.5c0.3-2.3,1.3-4.3,2.7-6c2.1-2.6,4.2-5.1,6.5-7.5
		c1.3-1.4,2-2.8,1.9-4.8c-0.2-3.7,1.3-6.8,3.9-9.3c4.6-4.6,10.2-6.5,16.7-5.5c9.1,1.5,13.7,9.8,10.3,18.4c-0.7,1.7-1.7,3.2-2.6,4.7
		c-0.5,0.9-1.2,1.8-2.1,3c1.1,0.5,1.9,0.9,2.7,1.1c11.5,2.8,23.2,3.8,35,3.8c1.8,0,3.1-0.6,4.3-2c3.5-3.9,7.2-7.7,10.6-11.7
		c2.2-2.6,4.2-5.5,6.2-8.3c3.3-4.8,6.5-9.6,9.8-14.4c1.1-1.6,2.2-3.2,3.4-4.7c0.6-0.7,1.3-1.5,2.1-2c0.6-0.3,1.7-0.4,2.3-0.1
		c0.5,0.3,1,1.4,0.9,2.1c-0.3,1.5-0.9,2.9-1.5,4.3c-0.6,1.5-1.4,3-2.1,4.5c-0.1,0.2,0.7,1,0.9,0.9c1.1-0.3,2.1-0.8,3.1-1.2
		c2.6-1,5.1-2.2,7.8-2.8c2.5-0.5,5.2-0.7,7.8-0.4c5.8,0.6,10,5,11.1,10.7c0.9,4.7,0.2,9.1-1.5,13.4c-1.8,4.6-4.6,8.5-8.2,11.8
		c-6.5,5.9-14,9.9-22.6,11.6c-2.7,0.5-5.5,0.7-8.2,0.5c-5.5-0.4-8-3.1-8.8-8.6c-0.1-0.5-0.4-0.9-0.6-1.3c-0.4,0.3-1,0.5-1.3,0.8
		c-0.5,0.6-0.9,1.4-1.4,2.1c-12.9,19.5-25.6,39.1-37.6,59.2c-1.3,2.3-2.8,4.5-4.3,6.6c-2,2.7-4.6,3.5-6.8,2.4
		c-2.4-1.2-3.1-3.9-2-7.2c0.3-0.8,0.6-1.5,1-2.3c7.4-15.6,15.2-31.1,24.9-45.5c2.4-3.6,4.9-7,7.4-10.5
		C1052.7,204.3,1053.3,203.4,1054.4,201.9z M1084.4,200.7c0.8-0.1,1.5-0.1,2.2-0.2c8.2-1.3,15.2-4.9,21-10.7c3-3,4.9-6.7,5.7-10.9
		c0.2-1.3,0.2-2.7,0.1-4.1c-0.1-0.7-0.7-1.2-1.5-0.9c-1,0.4-2.1,0.8-3.1,1.3c-6.8,3.4-13.1,7.6-18.6,12.9c-2.6,2.5-4.9,5.2-7.3,7.9
		c-0.6,0.7-1.1,1.6-1.4,2.5s0.1,1.6,1,1.9C1083.1,200.6,1083.8,200.6,1084.4,200.7z M1016.1,179.7c-0.1-0.4-0.1-1.1-0.3-1.7
		c-0.9-2.4-2.9-3.2-4.8-1.5c-2.7,2.2-5.1,4.6-7.6,7c-0.9,0.9-0.8,1.6,0.1,2.5c0.3,0.3,0.6,0.6,1,0.8c5,3.3,4.8,3.6,9.1-1.2
		C1014.9,184,1015.9,182.2,1016.1,179.7z M1082.4,186.2c1.1-0.6,1.5-0.8,1.9-1c7.6-5.2,15.8-9,24.5-11.9c0.7-0.2,1.3-0.4,1.9-0.7
		c0.3-0.2,0.7-0.6,0.6-0.9c-0.1-0.3-0.5-0.7-0.8-0.8c-0.9-0.2-1.9-0.4-2.9-0.3c-2.8,0.1-5.4,1.1-7.9,2.4c-6.1,3-11.5,7.1-16.5,11.7
		C1083.1,184.9,1082.9,185.3,1082.4,186.2z M989.9,198.6c4.4-0.5,7.6-1.8,10.8-4c-1.2-1.1-2.3-1.9-3.3-2.8c-0.8-0.7-1.5-0.6-2.2,0.1
		C993.5,193.8,991.6,195.6,989.9,198.6z"/>
	<path class="st0" d="M564.3,193.6c-5.3,6.1-11.2,11.4-18,15.5c-2.3,1.4-4.9,2.6-7.5,3.3c-5.9,1.6-11.3-1.2-13.4-6.9
		c-0.9-2.4-1.3-5.1-1.4-7.7c-0.3-5.3,1-10.4,2.6-15.5c2.5-7.9,6.1-15.4,9.7-22.9c0.6-1.2,1.2-2.4,1.7-3.6c-0.7-0.9-1.1-0.3-1.5,0
		c-0.4,0.2-0.6,0.6-0.9,0.8c-5.7,5.2-11.4,10.5-17.2,15.6c-7.8,6.9-16,13.2-24.8,18.7c-6.5,4-13.3,7.5-20.6,9.7
		c-1.3,0.4-2.6,0.9-4,1.1c-3.3,0.5-6.5,1.4-9.1,3.7c-0.6,0.5-1.4,0.8-2.2,1.1c-1.4,0.5-2.7,0.6-3.9-0.4c-1.5-1.1-0.7-2.5-0.4-3.8
		c-1.3-0.5-2.6-1-3.8-1.6c-4.7-2.3-7-6.4-6.3-11.5c0.3-2.1,1-4.4,2-6.3c4.5-8.4,11.4-14.2,20.4-17.3c2.4-0.8,4.8-1.2,7.4-0.9
		c6,0.7,9.3,5.2,8,11.1c-1,4.5-3.3,8.5-5.7,12.4c-0.8,1.3-1.6,2.5-2.8,4.5c1.7-0.5,2.6-0.7,3.4-1.1c5.9-2.5,11.4-5.7,16.6-9.3
		c7.1-4.8,13.8-10.2,20.2-15.9c13.2-11.6,25.9-23.7,37.7-36.8c4.3-4.7,8-9.9,11.4-15.3c8.2-13.2,16.5-26.2,24.8-39.3
		c2.2-3.4,4.6-6.6,7-9.8c0.8-1.1,1.8-2.1,2.9-2.9c1-0.8,2.3-0.9,3.5-0.2c1.3,0.8,2,2,1.8,3.5c-0.1,1.1-0.4,2.2-0.9,3.2
		c-1,2.1-2.1,4.2-3.2,6.3c-8.3,15.5-17.9,30.3-28.8,44.1c-4.3,5.5-8,11.2-11.2,17.4c-6,11.6-12,23.1-16.8,35.2
		c-2.1,5.4-3.9,10.9-5.7,16.5c-0.7,2.2-1,4.6-1.3,6.9c-0.2,1.6-0.2,3.3,0,5c0.4,3.4,2.2,4.9,5.7,4.6c2.3-0.2,4.6-0.8,6.8-1.5
		c4.6-1.6,8.8-4.1,12.8-6.8C561.1,195.8,562.7,194.7,564.3,193.6z M458.7,196c1.8-0.1,3.3-0.3,4.5-1.8c3.7-5,7.2-10.1,9.5-15.9
		c0.6-1.6,2-3.4,0.4-5c-1.5-1.4-3.5-0.4-5.1,0.2c-7,2.6-12.2,7.3-15.7,13.9c-0.4,0.7-0.6,1.5-0.8,2.3c-0.5,2.3,0.1,3.8,2.1,4.8
		C455.3,195.2,457,195.5,458.7,196z"/>
	<path class="st0" d="M1397.1,186c-0.4,0.3-0.8,0.6-1.2,0.8c-17.2,7.7-34.6,14.8-52.9,19.5c-8.3,2.1-16.8,3.6-25.4,3.2
		c-4.6-0.2-9.1-1.1-13.3-2.8c-9.6-4-14.9-11.2-15.2-21.7c0-0.8-0.1-1.6-0.2-2.4c-1.6-0.4-2.5,0.6-3.6,1.2c-3.3,1.8-6.5,3.7-9.8,5.4
		c-7.4,3.6-15.1,6.1-23,8.2c-4.4,1.2-8.8,0.5-13.1-0.6c-4.3-1.1-6.7-4.3-7.3-8.7c-0.2-1.2-0.2-2.4-0.4-4.1c-1.2,0.9-2,1.6-2.8,2.3
		c-3.1,2.9-6.2,6-9.4,8.8c-1.7,1.6-3.6,3-5.6,4.3c-1.2,0.8-2.7,1.4-4.2,1.7c-4,0.8-7.1-1.4-7.9-5.4c-0.4-2.5,0-5,0.8-7.4
		c1.4-4.3,3.1-8.6,4.6-12.9c0.5-1.4,1.4-2.7,1.2-4.5c-1.8,0.3-2.9,1.4-4,2.3c-10,7.7-19.9,15.4-29.8,23.2c-4,3.2-7.9,6.5-11.9,9.7
		c-0.9,0.7-1.7,1.4-2.7,1.9c-0.5,0.2-1.5,0.2-1.9-0.1c-0.5-0.5-0.9-1.4-0.9-2.1c0.1-0.9,0.6-1.9,1.1-2.6c1.1-1.6,2.3-3.1,3.6-4.5
		c12.8-14.1,27.2-26.4,43-37c1.5-1,3.1-1.9,4.7-2.7c2.6-1.2,5.4-1.6,7.9,0.3c2.5,1.9,2.9,4.6,2.3,7.5c-0.5,2.2-1.1,4.3-1.8,6.4
		c-1.2,3.5-2.6,7-3.9,10.5c-0.5,1.3-0.8,2.6-1.5,4.6c1.4-0.9,2.2-1.3,2.9-1.9c4.2-4,8.3-8.1,12.5-12.2c2.9-2.8,5.7-5.7,8.6-8.4
		c1.4-1.3,3-2.4,4.7-3.4c1.8-1,3.8-0.9,5.5,0.4c1.7,1.3,2.2,3.2,1.7,5.2c-0.4,1.6-1,3.1-1.7,4.6c-1.5,3.3-3.2,6.5-4.5,9.8
		c-1.9,4.9-1,6.2,4.1,5.7c3.7-0.4,7.4-1.1,11-2.1c6.4-1.8,12.7-4,19-6.1c5-1.7,9.5-4.4,13.9-7.3c1.3-0.8,2.3-2.3,3.2-3.7
		c2.5-4.1,5.3-7.8,8.9-10.9c1.4-1.3,3-2.4,4.7-3.4c1.2-0.7,2.6-1.1,3.9-1.2c4-0.3,6.7,3.1,5.2,6.8c-0.8,1.9-2,3.7-3.5,5.1
		c-2.7,2.6-5.5,5.1-8.6,7.1c-3.8,2.5-5.1,6-5.6,10.1c-0.6,4.2,0.3,8,3.1,11.3c1.7,2.1,3.9,3.5,6.3,4.6c3.9,1.7,7.9,2.5,12.1,2.8
		c9.3,0.8,18.5-0.2,27.7-1.7c13.1-2.2,25.9-5.9,38.4-10.3c3-1,6-2.1,9-3.2c0.6-0.2,1.3-0.3,1.9-0.5
		C1396.9,185.7,1397,185.9,1397.1,186z"/>
	<path class="st0" d="M263.4,165.9c-1.8,1.7-3.7,3.3-5.4,5.1c-14.8,15.1-29.6,30.2-44.4,45.3c-1,1-1.9,2-3,2.8
		c-0.3,0.3-1.1,0.2-1.5,0c-0.4-0.3-0.7-1-0.6-1.4c0.2-0.9,0.6-1.9,1.1-2.6c1.3-1.8,2.6-3.6,4.1-5.2c16.5-18.3,33.3-36.3,51-53.4
		c1.4-1.3,2.9-2.6,4.4-3.8c1.5-1.1,3.3-1.5,5.1-0.5c1.8,1,2.4,2.7,2.2,4.6c-0.2,1.9-0.6,3.9-1.2,5.6c-3.3,8.7-6.7,17.3-10.1,25.9
		c-1.1,2.7-2.3,5.3-3.4,8c-0.2,0.6-0.3,1.2-0.7,2.6c1.5-1,2.4-1.4,3.2-2.1c3.7-3.2,7.3-6.4,10.9-9.6c5.9-5.3,11.6-10.7,17.6-15.8
		c3.7-3.2,7.6-6,11.5-8.8c1.7-1.2,3.6-2.1,5.5-2.7c4.9-1.6,9.2,0.8,10.6,5.9c0.4,1.6,0.6,3.3,0.5,4.9c-0.2,2.9-0.6,5.8-1.1,8.6
		c-0.9,5.2-1.9,10.3-3.1,15.5c-0.7,3.1-1.8,6.7-2.5,9.8c-0.8,3.2-1.4,6-1.6,8.5c0,0.4-0.5,0.5-0.7,0.3c-1.7-1.3-2.4-3-3.1-4.7
		c-2.2-5.5-2.6-11.3-1.7-17.1c0.7-4.6,1.7-9.2,2.6-13.9c0.3-1.6,0.5-3.3,0.7-4.9c0.1-0.8-0.7-1.2-1.4-0.8c-1.1,0.7-2.1,1.3-3.1,2.1
		c-4.2,3.5-8.5,7.1-12.6,10.7c-6.1,5.4-12,11.1-18.1,16.4c-3.4,3-7,5.8-10.8,8.5c-2,1.4-4.3,2.5-6.7,3.2c-5.6,1.5-10-2.4-9.3-8.2
		c0.3-2.3,0.9-4.6,1.8-6.8c2.8-6.6,5.8-13.2,8.8-19.7c1.4-3,3-5.9,4.4-8.9c0.4-0.8,0.7-1.7,1-2.6
		C263.8,166.3,263.6,166.1,263.4,165.9z"/>
	<path class="st0" d="M658.6,179.8c-0.7-0.8,2-3,3-4.2c4.5-5.1,9.1-10.1,13.5-15.2c2.3-2.6,4.4-5.3,6.4-8.2c1.8-2.6,3.3-5.4,4.8-8.2
		c0.8-1.5,1.3-3.1,1.7-4.7c0.6-2.3-0.5-3.4-3-3.1c-1.5,0.2-3,0.6-4.4,1.2c-2.2,0.9-4.3,1.8-6.4,2.9c-13.3,7.1-25.2,16-35.6,26.9
		c-2.9,3.1-5.5,6.6-8.1,10c-1.1,1.4-1.8,3.1-2.4,4.8c-1.1,3.2-0.4,5.3,2.3,7.2c3.2,2.3,6.9,3.5,10.7,4.4c5.5,1.3,11.1,2.4,16.6,3.7
		c1.6,0.4,3.2,0.8,4.7,1.5c4.3,1.9,4.8,5.9,1.1,8.8c-1.6,1.3-3.5,2.2-5.4,3.1c-6.2,2.9-12.6,4.9-19.2,6.7c-8.5,2.4-17.2,4.2-26,5.1
		c-2.1,0.2-4.1,0.2-6.2,0.1c-1.4-0.1-2.8-0.4-4-1c-3.8-1.7-4.9-5.5-2.4-8.9c0.9-1.2,2-2.3,3.3-3.2c3-1.9,6.1-3.9,9.3-5.4
		c3.5-1.7,7.2-2.8,10.8-4.2c1.1-0.4,2.3-0.9,3.9-1.5c-1.2-0.9-2-1.5-2.9-2.2c-6.1-4.4-8.2-10.3-5.7-17.5c0.9-2.5,2-4.9,3.5-7
		c2.6-3.6,5.3-7.2,8.3-10.3c11.1-11.6,24-20.9,38.4-27.8c3.4-1.6,6.9-2.8,10.5-3.9c1.9-0.6,4.1-0.8,6.1-0.7c6,0.3,9.3,4.7,7.8,10.5
		c-0.5,1.9-1.1,3.8-2.2,5.4c-2.4,3.9-4.9,7.8-7.7,11.3c-6.4,7.8-13.8,14.7-21.5,21.3C661.4,178.5,659.2,180.5,658.6,179.8z
		 M652.9,204.9c0.5-0.3,0.4-0.7,0-0.9c-0.8-0.2-1.6-0.5-2.4-0.6c-5.9-0.8-11.8-1.6-17.5-3.3c-1.4-0.4-2.7-0.1-4,0.6
		c-6.2,3.3-12.2,7-17.8,11.3c-0.4,0.3-2,1.4-1.3,2C611.7,215.4,639.2,209.6,652.9,204.9z"/>
	<path class="st0" d="M379.2,190c1.8-1.5,3-2.4,4.1-3.4c5.2-4.8,10.3-9.6,15.6-14.3c2-1.9,4.1-3.7,6.3-5.4c1.1-0.8,2.3-1.6,3.6-2
		c3.1-0.9,6,0.8,6.4,4.1c0.2,1.7,0,3.6-0.4,5.3c-0.7,3.4-1.7,6.7-2.4,10.1c-0.5,2.2-0.9,4.4-1,6.6c-0.2,4.8,1.8,8,6.3,9.6
		c2.6,0.9,5.3,1.3,8.4,2c-0.9,0.4-1.5,0.7-2.2,0.9c-3.5,0.8-7.1,1-10.7,0.7c-5.3-0.5-8.6-3.5-10.1-8.5c-0.8-2.7-1-5.4-0.6-8.2
		c0.3-2.4,0.7-4.9,1.1-7.9c-1,0.7-1.7,1-2.2,1.5c-4.1,4-8,8-12.1,11.9c-2.5,2.4-5,4.7-7.6,7c-1.2,1.1-2.6,2.1-4,2.9
		c-2.6,1.6-5.4,2.3-8.2,0.3c-2.7-2-2.8-4.9-2.1-7.9c0.4-1.9,1-3.7,1.7-5.5c1.3-3.5,2.8-6.9,4.2-10.4c0.5-1.1,0.8-2.3,1.4-3.8
		c-1.6,0.1-2.2,1.1-2.9,1.8c-8,8.4-16,16.8-24.1,25.2c-3.1,3.3-6.3,6.6-9.5,9.9c-1,1-2,1.9-3.1,2.8c-0.6,0.5-1.4,1-2.1,1.1
		s-1.7-0.2-2.2-0.6c-0.3-0.3-0.3-1.3-0.1-1.9c0.2-0.6,0.7-1.2,1.1-1.7c12.9-17,26.8-33.1,41.8-48.3c1.2-1.2,2.4-2.3,3.7-3.4
		c1-0.8,2.1-1.5,3.2-1.9c3-1.1,6.1,0.6,6.5,3.8c0.2,2,0,4.2-0.6,6.1c-1.3,4.5-3,8.9-4.6,13.3c-0.6,1.8-1.4,3.6-2.1,5.4
		C379.6,187.9,379.5,188.6,379.2,190z"/>
	<path class="st0" d="M751.9,199c-14.8,4.9-29.7,8.1-45.2,8.7c-7.2,0.3-14.4-0.3-21.3-2.6c-1.4-0.5-2.7-0.6-4,0.1
		c-0.6,0.3-1.3,0.6-1.9,0.8c-3,0.8-4.9-0.9-4-4c0.4-1.4-0.1-2-0.9-2.8c-1.4-1.4-2.8-2.7-3.9-4.3c-3.4-4.9-3.3-10.3,0.2-15.1
		c4-5.4,9.5-8.3,16.2-8.9c1.5-0.1,3.1,0.1,4.5,0.5c5,1.3,7.7,5.5,7.1,10.7c-0.5,3.9-2.2,7.4-4.4,10.6c-2.6,3.8-2.8,4,1.9,5.3
		c13.5,3.9,27.2,4.6,41.1,2.9c4.2-0.5,8.5-1.3,12.7-1.9C750.6,199.1,751.3,199.1,751.9,199z M691.9,182c0-1.9-0.8-2.9-2.3-3.2
		c-4-0.5-9.9,3.5-10.9,7.3c-0.4,1.4,0,2.5,1.4,3c1.9,0.7,3.4,1.7,4.3,3.6c0.5,1,1.3,1,2,0.2c2.3-2.7,4.2-5.8,5.3-9.2
		C691.8,183,691.8,182.3,691.9,182z"/>
	<path class="st0" d="M1137.1,195.6c0.2-0.2,0.5,0,0.4,0.2c-0.2,2.2-0.4,3.7-0.4,5.2c0,2.4,1.2,3.3,3.5,2.5c1.8-0.6,3.6-1.5,5.2-2.5
		c5.9-3.8,10.8-8.7,14.5-14.6c1.3-2.1,2.3-4.5,2.8-6.8c0.9-3.8-1.2-6.6-5.1-7c-2-0.2-4.2,0.1-6.1,0.8c-3.5,1.4-7,2.9-10,5
		c-4.4,3.1-8.5,6.7-12.7,10.1c-0.4,0.4-0.8,0.7-1.2,1.2c-2.5,2.8-2.8,3.9-1.6,7.1c0.1,0.2-0.1,0.4-0.3,0.3c-2.3-0.9-3.4-2.7-3.3-5.1
		c0.1-2.2,0.5-4.5,1.3-6.4c1.1-2.5,2.6-4.9,4.4-7c5.6-6.3,12.6-10.7,20.7-13.2c2.7-0.8,5.4-1.1,8.2-0.8c8.6,0.9,13.6,7.7,11.8,16.1
		c-0.5,2.3-1.4,4.5-2.6,6.5c-4.7,8-11.1,14.5-19.2,19c-2,1.1-4.3,2-6.6,2.3c-5.1,0.8-8-2.4-6.8-7.4
		C1134.6,199.3,1135.1,197.4,1137.1,195.6z"/>
	<path class="st0" d="M617.8,142.5c-0.2-2.5,1.1-4.9,0.8-7.4c0-0.3-0.3-0.4-0.6-0.3c-1.2,0.5-1.5,1.6-2,2.5
		c-3.4,5.9-6.7,11.8-9.9,17.7c-6.2,11.7-12,23.7-16.9,36c-1.8,4.5-3.5,9-4.4,13.8c-0.1,0.8-0.4,1.6-0.7,2.4c-1,2.3-3.2,3.4-5.3,3
		c-2.3-0.5-3.8-2.7-3.7-5.3c0-0.7,0.1-1.4,0.4-2c2.2-5.2,4.1-10.6,6.9-15.4c2.8-4.7,7.1-12.5,9.6-17.4c5.7-10.6,11.3-21.3,17.1-31.9
		c2.1-3.9,4.6-7.6,7-11.3c0.9-1.4,2.1-2.5,3.4-3.6c1.1-0.9,2.5-1.1,3.9-0.3c1.3,0.8,1.8,2,1.8,3.5c0,0.8-0.2,1.6-0.4,2.4
		c-0.6,2.4-4.2,10-6.4,13.6C618.2,142.9,617.9,142.8,617.8,142.5z"/>
</g>
</svg>
